<?xml version="1.0" encoding="UTF-8" standalone="no"?>
<!DOCTYPE svg PUBLIC "-//W3C//DTD SVG 1.1//EN"
 "http://www.w3.org/Graphics/SVG/1.1/DTD/svg11.dtd">
<!-- Generated by graphviz version 2.38.0 (20140413.2041)
 -->
<!-- Title: login Pages: 1 -->
<svg width="161pt" height="354pt"
 viewBox="0.00 0.00 160.88 354.48" xmlns="http://www.w3.org/2000/svg" xmlns:xlink="http://www.w3.org/1999/xlink">
<g id="graph0" class="graph" transform="scale(1 1) rotate(0) translate(4 350.48)">
<title>login</title>
<polygon fill="white" stroke="none" points="-4,4 -4,-350.48 156.882,-350.48 156.882,4 -4,4"/>
<!-- match_varint_1 -->
<g id="node1" class="node"><title>match_varint_1</title>
<polygon fill="none" stroke="black" points="82.234,-346.48 32.234,-308.48 82.234,-270.48 132.234,-308.48 82.234,-346.48"/>
<text text-anchor="middle" x="82.234" y="-312.28" font-family="Times,serif" font-size="14.00">match</text>
<text text-anchor="middle" x="82.234" y="-297.28" font-family="Times,serif" font-size="14.00">varint</text>
</g>
<!-- field_name_2 -->
<g id="node2" class="node"><title>field_name_2</title>
<ellipse fill="none" stroke="black" cx="33.234" cy="-192.61" rx="33.4697" ry="26.7407"/>
<text text-anchor="middle" x="33.234" y="-196.41" font-family="Times,serif" font-size="14.00">string</text>
<text text-anchor="middle" x="33.234" y="-181.41" font-family="Times,serif" font-size="14.00">name</text>
</g>
<!-- match_varint_1&#45;&gt;field_name_2 -->
<g id="edge1" class="edge"><title>match_varint_1&#45;&gt;field_name_2</title>
<path fill="none" stroke="black" d="M70.1217,-279.333C63.3935,-263.697 54.9738,-244.131 47.8779,-227.641"/>
<polygon fill="black" stroke="black" points="51.0435,-226.142 43.8757,-218.34 44.6135,-228.909 51.0435,-226.142"/>
<text text-anchor="middle" x="61.734" y="-241.28" font-family="Times,serif" font-size="14.00">0</text>
</g>
<!-- field_secret_4 -->
<g id="node4" class="node"><title>field_secret_4</title>
<ellipse fill="none" stroke="black" cx="118.234" cy="-192.61" rx="33.8824" ry="26.7407"/>
<text text-anchor="middle" x="118.234" y="-196.41" font-family="Times,serif" font-size="14.00">bytes</text>
<text text-anchor="middle" x="118.234" y="-181.41" font-family="Times,serif" font-size="14.00">secret</text>
</g>
<!-- match_varint_1&#45;&gt;field_secret_4 -->
<g id="edge2" class="edge"><title>match_varint_1&#45;&gt;field_secret_4</title>
<path fill="none" stroke="black" d="M91.6926,-277.562C96.4092,-262.643 102.144,-244.503 107.075,-228.907"/>
<polygon fill="black" stroke="black" points="110.503,-229.675 110.18,-219.085 103.828,-227.565 110.503,-229.675"/>
<text text-anchor="middle" x="106.734" y="-241.28" font-family="Times,serif" font-size="14.00">1</text>
</g>
<!-- emit_start_3 -->
<g id="node3" class="node"><title>emit_start_3</title>
<polygon fill="none" stroke="black" points="60.234,-120.87 6.23402,-120.87 6.23402,-82.8701 60.234,-82.8701 60.234,-120.87"/>
<text text-anchor="middle" x="33.234" y="-105.67" font-family="Times,serif" font-size="14.00">emit</text>
<text text-anchor="middle" x="33.234" y="-90.6701" font-family="Times,serif" font-size="14.00">start</text>
</g>
<!-- field_name_2&#45;&gt;emit_start_3 -->
<g id="edge3" class="edge"><title>field_name_2&#45;&gt;emit_start_3</title>
<path fill="none" stroke="black" d="M33.234,-165.465C33.234,-154.617 33.234,-142.01 33.234,-130.964"/>
<polygon fill="black" stroke="black" points="36.7341,-130.962 33.234,-120.962 29.7341,-130.962 36.7341,-130.962"/>
</g>
<!-- field_verify_5 -->
<g id="node5" class="node"><title>field_verify_5</title>
<ellipse fill="none" stroke="black" cx="118.234" cy="-101.87" rx="34.7971" ry="26.7407"/>
<text text-anchor="middle" x="118.234" y="-105.67" font-family="Times,serif" font-size="14.00">bytes</text>
<text text-anchor="middle" x="118.234" y="-90.6701" font-family="Times,serif" font-size="14.00">verify</text>
</g>
<!-- field_secret_4&#45;&gt;field_verify_5 -->
<g id="edge4" class="edge"><title>field_secret_4&#45;&gt;field_verify_5</title>
<path fill="none" stroke="black" d="M118.234,-165.465C118.234,-157.161 118.234,-147.825 118.234,-138.948"/>
<polygon fill="black" stroke="black" points="121.734,-138.828 118.234,-128.828 114.734,-138.828 121.734,-138.828"/>
</g>
<!-- emit_response_6 -->
<g id="node6" class="node"><title>emit_response_6</title>
<polygon fill="none" stroke="black" points="150.234,-38 86.234,-38 86.234,-0 150.234,-0 150.234,-38"/>
<text text-anchor="middle" x="118.234" y="-22.8" font-family="Times,serif" font-size="14.00">emit</text>
<text text-anchor="middle" x="118.234" y="-7.8" font-family="Times,serif" font-size="14.00">response</text>
</g>
<!-- field_verify_5&#45;&gt;emit_response_6 -->
<g id="edge5" class="edge"><title>field_verify_5&#45;&gt;emit_response_6</title>
<path fill="none" stroke="black" d="M118.234,-74.8371C118.234,-66.3022 118.234,-56.7826 118.234,-48.1016"/>
<polygon fill="black" stroke="black" points="121.734,-48.0513 118.234,-38.0513 114.734,-48.0513 121.734,-48.0513"/>
</g>
</g>
</svg>
