<?xml version="1.0" encoding="UTF-8" standalone="no"?>
<!DOCTYPE svg PUBLIC "-//W3C//DTD SVG 1.1//EN"
 "http://www.w3.org/Graphics/SVG/1.1/DTD/svg11.dtd">
<!-- Generated by graphviz version 2.38.0 (20140413.2041)
 -->
<!-- Title: handshake Pages: 1 -->
<svg width="108pt" height="536pt"
 viewBox="0.00 0.00 108.00 535.96" xmlns="http://www.w3.org/2000/svg" xmlns:xlink="http://www.w3.org/1999/xlink">
<g id="graph0" class="graph" transform="scale(1 1) rotate(0) translate(4 531.96)">
<title>handshake</title>
<polygon fill="white" stroke="none" points="-4,4 -4,-531.96 104,-531.96 104,4 -4,4"/>
<!-- match_varint_1 -->
<g id="node1" class="node"><title>match_varint_1</title>
<polygon fill="none" stroke="black" points="50,-527.96 7.10543e-15,-489.96 50,-451.96 100,-489.96 50,-527.96"/>
<text text-anchor="middle" x="50" y="-493.76" font-family="Times,serif" font-size="14.00">match</text>
<text text-anchor="middle" x="50" y="-478.76" font-family="Times,serif" font-size="14.00">varint</text>
</g>
<!-- field_version_2 -->
<g id="node2" class="node"><title>field_version_2</title>
<ellipse fill="none" stroke="black" cx="50" cy="-374.09" rx="39.6962" ry="26.7407"/>
<text text-anchor="middle" x="50" y="-377.89" font-family="Times,serif" font-size="14.00">varint</text>
<text text-anchor="middle" x="50" y="-362.89" font-family="Times,serif" font-size="14.00">version</text>
</g>
<!-- match_varint_1&#45;&gt;field_version_2 -->
<g id="edge1" class="edge"><title>match_varint_1&#45;&gt;field_version_2</title>
<path fill="none" stroke="black" d="M50,-451.675C50,-438.804 50,-424.406 50,-411.598"/>
<polygon fill="black" stroke="black" points="53.5001,-411.281 50,-401.281 46.5001,-411.282 53.5001,-411.281"/>
<text text-anchor="middle" x="53.5" y="-422.76" font-family="Times,serif" font-size="14.00">0</text>
</g>
<!-- field_address_3 -->
<g id="node3" class="node"><title>field_address_3</title>
<ellipse fill="none" stroke="black" cx="50" cy="-283.35" rx="40.1111" ry="26.7407"/>
<text text-anchor="middle" x="50" y="-287.15" font-family="Times,serif" font-size="14.00">string</text>
<text text-anchor="middle" x="50" y="-272.15" font-family="Times,serif" font-size="14.00">address</text>
</g>
<!-- field_version_2&#45;&gt;field_address_3 -->
<g id="edge2" class="edge"><title>field_version_2&#45;&gt;field_address_3</title>
<path fill="none" stroke="black" d="M50,-346.945C50,-338.641 50,-329.305 50,-320.429"/>
<polygon fill="black" stroke="black" points="53.5001,-320.308 50,-310.308 46.5001,-320.308 53.5001,-320.308"/>
</g>
<!-- field_port_4 -->
<g id="node4" class="node"><title>field_port_4</title>
<ellipse fill="none" stroke="black" cx="50" cy="-192.61" rx="31.2258" ry="26.7407"/>
<text text-anchor="middle" x="50" y="-196.41" font-family="Times,serif" font-size="14.00">short</text>
<text text-anchor="middle" x="50" y="-181.41" font-family="Times,serif" font-size="14.00">port</text>
</g>
<!-- field_address_3&#45;&gt;field_port_4 -->
<g id="edge3" class="edge"><title>field_address_3&#45;&gt;field_port_4</title>
<path fill="none" stroke="black" d="M50,-256.205C50,-247.901 50,-238.565 50,-229.688"/>
<polygon fill="black" stroke="black" points="53.5001,-229.568 50,-219.568 46.5001,-229.568 53.5001,-229.568"/>
</g>
<!-- field_next_5 -->
<g id="node5" class="node"><title>field_next_5</title>
<ellipse fill="none" stroke="black" cx="50" cy="-101.87" rx="33.8824" ry="26.7407"/>
<text text-anchor="middle" x="50" y="-105.67" font-family="Times,serif" font-size="14.00">varint</text>
<text text-anchor="middle" x="50" y="-90.6701" font-family="Times,serif" font-size="14.00">next</text>
</g>
<!-- field_port_4&#45;&gt;field_next_5 -->
<g id="edge4" class="edge"><title>field_port_4&#45;&gt;field_next_5</title>
<path fill="none" stroke="black" d="M50,-165.465C50,-157.161 50,-147.825 50,-138.948"/>
<polygon fill="black" stroke="black" points="53.5001,-138.828 50,-128.828 46.5001,-138.828 53.5001,-138.828"/>
</g>
<!-- emit_handshake_6 -->
<g id="node6" class="node"><title>emit_handshake_6</title>
<polygon fill="none" stroke="black" points="87,-38 13,-38 13,-0 87,-0 87,-38"/>
<text text-anchor="middle" x="50" y="-22.8" font-family="Times,serif" font-size="14.00">emit</text>
<text text-anchor="middle" x="50" y="-7.8" font-family="Times,serif" font-size="14.00">handshake</text>
</g>
<!-- field_next_5&#45;&gt;emit_handshake_6 -->
<g id="edge5" class="edge"><title>field_next_5&#45;&gt;emit_handshake_6</title>
<path fill="none" stroke="black" d="M50,-74.8371C50,-66.3022 50,-56.7826 50,-48.1016"/>
<polygon fill="black" stroke="black" points="53.5001,-48.0513 50,-38.0513 46.5001,-48.0513 53.5001,-48.0513"/>
</g>
</g>
</svg>
