<?xml version="1.0" encoding="UTF-8" standalone="no"?>
<!DOCTYPE svg PUBLIC "-//W3C//DTD SVG 1.1//EN"
 "http://www.w3.org/Graphics/SVG/1.1/DTD/svg11.dtd">
<!-- Generated by graphviz version 2.38.0 (20140413.2041)
 -->
<!-- Title: status Pages: 1 -->
<svg width="186pt" height="264pt"
 viewBox="0.00 0.00 186.33 263.74" xmlns="http://www.w3.org/2000/svg" xmlns:xlink="http://www.w3.org/1999/xlink">
<g id="graph0" class="graph" transform="scale(1 1) rotate(0) translate(4 259.74)">
<title>status</title>
<polygon fill="white" stroke="none" points="-4,4 -4,-259.74 182.326,-259.74 182.326,4 -4,4"/>
<!-- match_varint_1 -->
<g id="node1" class="node"><title>match_varint_1</title>
<polygon fill="none" stroke="black" points="60,-255.74 10,-217.74 60,-179.74 110,-217.74 60,-255.74"/>
<text text-anchor="middle" x="60" y="-221.54" font-family="Times,serif" font-size="14.00">match</text>
<text text-anchor="middle" x="60" y="-206.54" font-family="Times,serif" font-size="14.00">varint</text>
</g>
<!-- emit_request_2 -->
<g id="node2" class="node"><title>emit_request_2</title>
<polygon fill="none" stroke="black" points="56,-120.87 -3.55271e-15,-120.87 -3.55271e-15,-82.8701 56,-82.8701 56,-120.87"/>
<text text-anchor="middle" x="28" y="-105.67" font-family="Times,serif" font-size="14.00">emit</text>
<text text-anchor="middle" x="28" y="-90.6701" font-family="Times,serif" font-size="14.00">request</text>
</g>
<!-- match_varint_1&#45;&gt;emit_request_2 -->
<g id="edge1" class="edge"><title>match_varint_1&#45;&gt;emit_request_2</title>
<path fill="none" stroke="black" d="M51.4246,-186.225C46.5799,-168.986 40.5683,-147.594 35.8482,-130.797"/>
<polygon fill="black" stroke="black" points="39.1731,-129.692 33.0981,-121.011 32.4341,-131.585 39.1731,-129.692"/>
<text text-anchor="middle" x="47.5" y="-150.54" font-family="Times,serif" font-size="14.00">0</text>
</g>
<!-- field_timestamp_3 -->
<g id="node3" class="node"><title>field_timestamp_3</title>
<ellipse fill="none" stroke="black" cx="126" cy="-101.87" rx="52.1524" ry="26.7407"/>
<text text-anchor="middle" x="126" y="-105.67" font-family="Times,serif" font-size="14.00">long</text>
<text text-anchor="middle" x="126" y="-90.6701" font-family="Times,serif" font-size="14.00">timestamp</text>
</g>
<!-- match_varint_1&#45;&gt;field_timestamp_3 -->
<g id="edge2" class="edge"><title>match_varint_1&#45;&gt;field_timestamp_3</title>
<path fill="none" stroke="black" d="M74.9764,-190.901C84.304,-174.808 96.4027,-153.934 106.478,-136.552"/>
<polygon fill="black" stroke="black" points="109.55,-138.231 111.536,-127.824 103.494,-134.721 109.55,-138.231"/>
<text text-anchor="middle" x="103.5" y="-150.54" font-family="Times,serif" font-size="14.00">1</text>
</g>
<!-- emit_ping_4 -->
<g id="node4" class="node"><title>emit_ping_4</title>
<polygon fill="none" stroke="black" points="153,-38 99,-38 99,-0 153,-0 153,-38"/>
<text text-anchor="middle" x="126" y="-22.8" font-family="Times,serif" font-size="14.00">emit</text>
<text text-anchor="middle" x="126" y="-7.8" font-family="Times,serif" font-size="14.00">ping</text>
</g>
<!-- field_timestamp_3&#45;&gt;emit_ping_4 -->
<g id="edge3" class="edge"><title>field_timestamp_3&#45;&gt;emit_ping_4</title>
<path fill="none" stroke="black" d="M126,-74.8371C126,-66.3022 126,-56.7826 126,-48.1016"/>
<polygon fill="black" stroke="black" points="129.5,-48.0513 126,-38.0513 122.5,-48.0513 129.5,-48.0513"/>
</g>
</g>
</svg>
